{"title":"OneRepublic - Counting Stars [Music Video] 1080p [Sbyky]","uid":9423118,"size":81499079,"categoryP":"video","categoryS":"music_videos","magnet":"?xt=urn:btih:60403ec3395d6c1159ad6edc23a5574604fff97a&amp;dn=OneRepublic+-+Counting+Stars+%5BMusic+Video%5D+1080p+%5BSbyky%5D&amp;tr=udp%3A%2F%2Ftracker.openbittorrent.com%3A80&amp;tr=udp%3A%2F%2Fopen.demonii.com%3A1337&amp;tr=udp%3A%2F%2Ftracker.coppersurfer.tk%3A6969&amp;tr=udp%3A%2F%2Fexodus.desync.com%3A6969","seeders":13,"leechers":0,"uploader":"Sbyky","files":1,"time":1388626576,"description":"\n\nGeneral\nComplete name                            : OneRepublic - Counting Stars [Music Video] 1080p [Sbyky].MP4\nFormat                                   : MPEG-4\nFormat profile                           : Base Media\nCodec ID                                 : isom\nFile size                                : 77.7 MiB\nDuration                                 : 4mn 43s\nOverall bit rate mode                    : Variable\nOverall bit rate                         : 2 303 Kbps\nEncoded date                             : UTC 2013-11-26 23:25:10\nTagged date                              : UTC 2013-11-26 23:25:10\n\nVideo\nID                                       : 1\nFormat                                   : AVC\nFormat/Info                              : Advanced Video Codec\nFormat profile                           : &lt;a class=&quot;__cf_email__&quot; href=&quot;/cdn-cgi/l/email-protection&quot; data-cfemail=&quot;c38baaa4ab838ff7edf3&quot;&gt;[email&amp;#160;protected]&lt;/a&gt;&lt;script cf-hash='f9e31' type=&quot;text/javascript&quot;&gt;\n/* &lt;![CDATA[ */!function(){try{var t=&quot;currentScript&quot;in document?document.currentScript:function(){for(var t=document.getElementsByTagName(&quot;script&quot;),e=t.length;e--;)if(t[e].getAttribute(&quot;cf-hash&quot;))return t[e]}();if(t&amp;&amp;t.previousSibling){var e,r,n,i,c=t.previousSibling,a=c.getAttribute(&quot;data-cfemail&quot;);if(a){for(e=&quot;&quot;,r=parseInt(a.substr(0,2),16),n=2;a.length-n;n+=2)i=parseInt(a.substr(n,2),16)^r,e+=String.fromCharCode(i);e=document.createTextNode(e),c.parentNode.replaceChild(e,c)}}}catch(u){}}();/* ]]&gt; */&lt;/script&gt;\nFormat settings, CABAC                   : Yes\nFormat settings, ReFrames                : 3 frames\nCodec ID                                 : avc1\nCodec ID/Info                            : Advanced Video Coding\nDuration                                 : 4mn 43s\nDuration_LastFrame                       : -41ms\nBit rate                                 : 2 174 Kbps\nWidth                                    : 1 920 pixels\nHeight                                   : 1 080 pixels\nDisplay aspect ratio                     : 16:9\nFrame rate mode                          : Constant\nFrame rate                               : 23.976 fps\nColor space                              : YUV\nChroma subsampling                       : 4:2:0\nBit depth                                : 8 bits\nScan type                                : Progressive\nBits/(Pixel*Frame)                       : 0.044\nStream size                              : 73.4 MiB (94%)\nEncoded date                             : UTC 2013-11-26 23:25:10\nTagged date                              : UTC 2013-11-26 23:25:10\n\nAudio\nID                                       : 2\nFormat                                   : AAC\nFormat/Info                              : Advanced Audio Codec\nFormat profile                           : LC\nCodec ID                                 : 40\nDuration                                 : 4mn 43s\nBit rate mode                            : Variable\nBit rate                                 : 126 Kbps\nChannel(s)                               : 2 channels\nChannel positions                        : Front: L R\nSampling rate                            : 44.1 KHz\nCompression mode                         : Lossy\nDelay relative to video                  : 42ms\nStream size                              : 4.24 MiB (5%)\nEncoded date                             : UTC 2013-11-26 23:23:58\nTagged date                              : UTC 2013-11-26 23:23:58\n\nShared By Sbyky\n","torrent":{"xt":"urn:btih:60403ec3395d6c1159ad6edc23a5574604fff97a","amp;dn":"OneRepublic+-+Counting+Stars+%5BMusic+Video%5D+1080p+%5BSbyky%5D","amp;tr":["udp%3A%2F%2Ftracker.openbittorrent.com%3A80","udp%3A%2F%2Fopen.demonii.com%3A1337","udp%3A%2F%2Ftracker.coppersurfer.tk%3A6969","udp%3A%2F%2Fexodus.desync.com%3A6969"],"infoHash":"60403ec3395d6c1159ad6edc23a5574604fff97a","infoHashBuffer":{"type":"Buffer","data":[96,64,62,195,57,93,108,17,89,173,110,220,35,165,87,70,4,255,249,122]},"announce":[],"urlList":[]}}